<svg xmlns="http://www.w3.org/2000/svg" width="100" height="100" viewBox="0 0 24 24" fill="white">
  <path fill-rule="evenodd" clip-rule="evenodd" d="M12 7.07a4.93 4.93 0 1 0 0 9.859 4.93 4.93 0 0 0 0-9.859Zm0 8.13a3.2 3.2 0 1 1 0-6.4 3.2 3.2 0 0 1 0 6.4Z"/>
  <path d="M18.276 6.875a1.152 1.152 0 1 1-2.304 0 1.152 1.152 0 0 1 2.304 0Z"/>
  <path fill-rule="evenodd" clip-rule="evenodd" d="M12 2.4c-2.608 0-2.935.011-3.959.058-1.021.046-1.719.209-2.33.446a4.702 4.702 0 0 0-1.7 1.107 4.702 4.702 0 0 0-1.107 1.7c-.237.611-.4 1.309-.446 2.33C2.41 9.066 2.4 9.393 2.4 12s.011 2.934.058 3.958c.046 1.022.209 1.72.446 2.33a4.702 4.702 0 0 0 1.107 1.7 4.707 4.707 0 0 0 1.7 1.108c.611.237 1.31.4 2.33.446 1.025.047 1.352.058 3.959.058s2.934-.011 3.958-.058c1.022-.047 1.72-.209 2.33-.446a4.704 4.704 0 0 0 1.7-1.108 4.705 4.705 0 0 0 1.108-1.7c.237-.61.4-1.308.446-2.33.047-1.024.058-1.351.058-3.958 0-2.608-.011-2.934-.058-3.958-.047-1.022-.209-1.72-.446-2.33a4.701 4.701 0 0 0-1.108-1.7 4.705 4.705 0 0 0-1.7-1.108c-.611-.237-1.309-.4-2.33-.446-1.024-.047-1.351-.058-3.959-.058Zm0 1.73c2.563 0 2.866.01 3.879.056.936.042 1.444.198 1.782.33.448.174.768.382 1.104.718.336.336.544.656.718 1.104.132.338.288.847.33 1.782.047 1.013.056 1.316.056 3.88 0 2.563-.01 2.867-.055 3.879-.043.936-.2 1.444-.33 1.783a2.978 2.978 0 0 1-.719 1.104 2.97 2.97 0 0 1-1.104.718c-.338.13-.846.287-1.782.33-1.012.046-1.316.056-3.88.056-2.563 0-2.867-.01-3.879-.056-.936-.043-1.444-.2-1.782-.33a2.978 2.978 0 0 1-1.104-.719 2.969 2.969 0 0 1-.718-1.103c-.132-.339-.288-.847-.33-1.783-.047-1.012-.056-1.316-.056-3.88 0-2.563.01-2.866.056-3.879.042-.935.198-1.444.33-1.782.174-.448.382-.768.718-1.104a2.969 2.969 0 0 1 1.104-.718c.338-.132.846-.288 1.782-.33C9.133 4.139 9.436 4.13 12 4.13Z"/>
</svg>
