<svg xmlns="http://www.w3.org/2000/svg" width="100" height="100" viewBox="0 0 24 24" fill="white">
  <path fill-rule="evenodd" clip-rule="evenodd" d="M9.792 15.211V8.788L15.436 12l-5.644 3.211Zm12.557-8.444a2.713 2.713 0 0 0-1.91-1.923C18.752 4.391 12 4.391 12 4.391s-6.754 0-8.438.453a2.713 2.713 0 0 0-1.91 1.923C1.2 8.462 1.2 11.999 1.2 11.999s0 3.537.452 5.232c.249.936.98 1.673 1.908 1.923 1.686.456 8.44.456 8.44.456s6.753 0 8.438-.456a2.716 2.716 0 0 0 1.91-1.922C22.8 15.537 22.8 12 22.8 12s0-3.538-.451-5.233Z"/>
</svg>
